<?xml version="1.0" encoding="utf-8"?>
<!-- Generator: Adobe Illustrator 19.0.0, SVG Export Plug-In . SVG Version: 6.00 Build 0)  -->
<svg version="1.1" id="Layer_1" xmlns="http://www.w3.org/2000/svg" xmlns:xlink="http://www.w3.org/1999/xlink" x="0px" y="0px"
	 viewBox="-49 141 512 512" style="enable-background:new -49 141 512 512;" xml:space="preserve">
<style type="text/css">
	.st0{fill:#7C7A7A;}
</style>
<title>ionicons-v5_logos</title>
<path class="st0" d="M447,250.5c-18,7.8-37.1,13-56.5,15.3c20.5-12,35.9-31.1,43.3-53.6c-19.4,11.3-40.5,19.3-62.6,23.5
	c-18.8-19.7-44.7-30.8-71.9-30.7c-54.4,0-98.5,43.4-98.5,96.9c0,7.4,0.8,14.9,2.5,22.1c-78.9-3.7-152.6-40.5-203-101.3
	C-8.4,237.4-13,254.3-13,271.4c0,33.6,17.5,63.3,44,80.7c-15.7-0.4-31-4.5-44.8-12.1v1.2c0,47,34,86.1,79,95
	c-8.5,2.3-17.2,3.4-25.9,3.4c-6.2,0-12.4-0.6-18.5-1.8c12.5,38.5,48.9,66.5,92.1,67.3c-35,27-78.1,41.6-122.3,41.5
	c-7.9,0-15.7-0.5-23.5-1.4c45,28.7,97.3,43.9,150.7,43.8c181.4,0,280.4-147.7,280.4-275.8c0-4.2-0.1-8.4-0.3-12.5
	C417.1,287,433.7,270,447,250.5z"/>
</svg>
