<?xml version="1.0" encoding="utf-8"?>
<!-- Generator: Adobe Illustrator 19.0.0, SVG Export Plug-In . SVG Version: 6.00 Build 0)  -->
<svg version="1.1" id="Layer_1" xmlns="http://www.w3.org/2000/svg" xmlns:xlink="http://www.w3.org/1999/xlink" x="0px" y="0px"
	 viewBox="-49 141 512 512" style="enable-background:new -49 141 512 512;" xml:space="preserve">
<style type="text/css">
	.st0{fill:#7C7A7A;}
</style>
<title>ionicons-v5_logos</title>
<path class="st0" d="M406.3,173H7.7C-5.9,173-17,184.1-17,197.7v398.5C-17,609.9-5.9,621,7.7,621H207V445h-53.6v-64H207v-51
	c0-57.9,40.1-89.4,91.8-89.4c24.7,0,51.3,1.9,57.5,2.7v60.4h-41.2c-28.1,0-33.5,13.3-33.5,32.9V381h67l-8.8,64h-58.2v176h124.6
	c13.7,0,24.7-11.1,24.7-24.7V197.7C431,184.1,419.9,173,406.3,173z"/>
</svg>
