<?xml version="1.0" encoding="utf-8"?>
<!-- Generator: Adobe Illustrator 19.0.0, SVG Export Plug-In . SVG Version: 6.00 Build 0)  -->
<svg version="1.1" id="Layer_1" xmlns="http://www.w3.org/2000/svg" xmlns:xlink="http://www.w3.org/1999/xlink" x="0px" y="0px"
	 viewBox="-49 141 512 512" style="enable-background:new -49 141 512 512;" xml:space="preserve">
<style type="text/css">
	.st0{fill:#7C7A7A;}
</style>
<title>ionicons-v5_logos</title>
<path class="st0" d="M424.2,362.5l-2.3-9.6H213.5v88.2H338c-12.9,61.4-72.9,93.7-121.9,93.7c-35.7,0-73.3-15-98.1-39.1
	c-26.5-26.1-41.6-61.7-41.8-98.9c0-37.2,16.7-74.3,41-98.8s61-38.1,97.5-38.1c41.8,0,71.7,22.2,82.9,32.3l62.7-62.4
	c-18.4-16.2-68.9-56.9-147.6-56.9l0,0c-60.8,0-119,23.3-161.6,65.7C9,280.5-12.8,340.9-12.8,397S7.8,510.5,48.6,552.6
	C92.1,597.5,153.7,621,217.1,621c57.7,0,112.5-22.6,151.5-63.7c38.3-40.4,58.2-96.3,58.2-154.9C426.8,377.8,424.3,363.1,424.2,362.5
	z"/>
</svg>
