<?xml version="1.0" encoding="utf-8"?>
<!-- Generator: Adobe Illustrator 19.0.0, SVG Export Plug-In . SVG Version: 6.00 Build 0)  -->
<svg version="1.1" id="Layer_1" xmlns="http://www.w3.org/2000/svg" xmlns:xlink="http://www.w3.org/1999/xlink" x="0px" y="0px"
	 viewBox="-49 141 512 512" style="enable-background:new -49 141 512 512;" xml:space="preserve">
<style type="text/css">
	.st0{fill:#7C7A7A;}
</style>
<title>ionicons-v5_logos</title>
<path class="st0" d="M300.3,210.3c51.5,0.2,93.2,41.9,93.3,93.3v186.7c-0.2,51.5-41.9,93.2-93.3,93.3H113.7
	c-51.5-0.2-93.2-41.9-93.3-93.3V303.7c0.2-51.5,41.9-93.2,93.3-93.3H300.3 M300.3,173H113.7C41.8,173-17,231.8-17,303.7v186.7
	C-17,562.2,41.8,621,113.7,621h186.7c71.9,0,130.7-58.8,130.7-130.7V303.7C431,231.8,372.2,173,300.3,173z"/>
<path class="st0" d="M328.3,303.7c-15.5,0-28-12.5-28-28c0-15.5,12.5-28,28-28s28,12.5,28,28c0,15.4-12.4,28-27.9,28
	C328.4,303.7,328.4,303.7,328.3,303.7z"/>
<path class="st0" d="M207,322.3c41.2,0,74.7,33.4,74.7,74.7s-33.4,74.7-74.7,74.7s-74.7-33.4-74.7-74.7
	C132.4,355.8,165.8,322.4,207,322.3 M207,285c-61.9,0-112,50.1-112,112s50.1,112,112,112s112-50.1,112-112S268.9,285,207,285z"/>
</svg>
