<?xml version="1.0" encoding="utf-8"?>
<!-- Generator: Adobe Illustrator 19.0.0, SVG Export Plug-In . SVG Version: 6.00 Build 0)  -->
<svg version="1.1" id="Layer_1" xmlns="http://www.w3.org/2000/svg" xmlns:xlink="http://www.w3.org/1999/xlink" x="0px" y="0px"
	 viewBox="0 0 612 792" style="enable-background:new 0 0 612 792;" xml:space="preserve">
<style type="text/css">
	.st0{fill:#FFFFFF;}
</style>
<g>
	<path d="M476,653c-113,0-226,0-339,0c-0.7-0.4-1.3-0.9-2.1-1.2c-13-5.3-19.9-15.4-19.9-29.3c0-150.4,0-300.7-0.1-451.1
		c0-10.2,4-18.2,11.8-24.1c3.6-2.7,8.1-4.2,12.2-6.3c89.3,0,178.7,0,268,0c4,2.5,8.7,4.4,12,7.6c24.1,23.5,48.1,47.1,72,70.8
		c5.1,5.1,8,11.4,8,18.8c0,129.1,0,258.3,0,387.4c0,1.5-0.2,3-0.6,4.4C495.2,642,487.1,648.9,476,653z M392.2,162.4
		c-2.7,0-5,0-7.3,0c-80,0-160,0-239.9,0c-8,0-8.9,0.9-8.9,8.9c0,150.3,0,300.6,0,450.9c0,1.7-0.5,3.7,0.2,4.9
		c1.1,1.9,2.9,3.6,4.8,4.7c1.3,0.7,3.3,0.2,4.9,0.2c107.5,0,215,0,322.4,0c1.5,0,3.4,0.5,4.4-0.2c1.8-1.2,3.9-3,4.5-4.9
		c0.8-2.6,0.4-5.6,0.4-8.4c0-121.8,0-243.6,0-365.4c0-1.6,0-3.2,0-5.2c-2.5,0-4.3,0-6.1,0c-22,0-44,0-66,0
		c-9.4,0-13.3-3.9-13.3-13.4c0-22,0-44,0-66C392.2,166.7,392.2,164.9,392.2,162.4z M413.9,173c-0.2,2.6-0.4,4-0.4,5.4
		c0,14.5,0.1,29-0.1,43.4c-0.1,4.1,1.4,5,5.2,5c14.5-0.2,29-0.1,43.4-0.1c1.6,0,3.1-0.2,3.3-0.2C448.6,209.1,431.6,191.5,413.9,173z
		"/>
	<path class="st0" d="M476,653c11.1-4.1,19.2-11,22.3-22.9c0.4-1.4,0.6-2.9,0.6-4.4c0-129.1,0-258.3,0-387.4c0-7.4-2.9-13.7-8-18.8
		c-23.9-23.7-47.8-47.4-72-70.8c-3.3-3.2-8-5.1-12-7.6c52,0,103.9,0,155.9,0c0,170.7,0,341.3,0,512C534,653,505,653,476,653z"/>
	<path class="st0" d="M139,141c-4.1,2.1-8.6,3.6-12.2,6.3c-7.9,5.9-11.8,13.9-11.8,24.1c0.1,150.4,0.1,300.7,0.1,451.1
		c0,13.9,6.9,24,19.9,29.3c0.7,0.3,1.4,0.8,2.1,1.2c-28.7,0-57.3,0-86,0c0-170.7,0-341.3,0-512C80.3,141,109.7,141,139,141z"/>
	<path class="st0" d="M392.2,162.4c0,2.5,0,4.3,0,6.1c0,22,0,44,0,66c0,9.4,3.9,13.4,13.3,13.4c22,0,44,0,66,0c1.8,0,3.6,0,6.1,0
		c0,2,0,3.6,0,5.2c0,121.8,0,243.6,0,365.4c0,2.8,0.4,5.8-0.4,8.4c-0.6,1.9-2.6,3.7-4.5,4.9c-1,0.7-2.9,0.2-4.4,0.2
		c-107.5,0-215,0-322.4,0c-1.7,0-3.6,0.5-4.9-0.2c-1.9-1.1-3.7-2.8-4.8-4.7c-0.7-1.2-0.2-3.3-0.2-4.9c0-150.3,0-300.6,0-450.9
		c0-8,0.9-8.9,8.9-8.9c80,0,160,0,239.9,0C387.2,162.4,389.5,162.4,392.2,162.4z M307.1,503.4C307.1,503.4,307.1,503.4,307.1,503.4
		c34.2,0,68.3,0,102.5,0c4.7,0,9.3,0.1,14-0.3c4.9-0.5,8.4-4.4,8.9-9.3c0.5-4.8-2.4-9.4-7.1-10.8c-2.2-0.6-4.6-0.8-6.9-0.8
		c-56.2,0-112.3,0-168.5-0.1c-18.7,0-37.3,0-56,0c-8.1,0-13.1,5.3-12,12.4c0.9,5.7,5.2,8.7,12.6,8.7
		C232.2,503.4,269.7,503.4,307.1,503.4z M307.2,568.2C307.2,568.2,307.2,568.2,307.2,568.2c24.8,0,49.7,0,74.5,0
		c13.5,0,27,0.1,40.5-0.1c5.8-0.1,10.2-4.5,10.4-10c0.2-5.7-4.2-10.5-10.1-11c-1-0.1-2,0-3,0c-58.3,0-116.6,0-175,0c-17,0-34,0-51,0
		c-7.7,0-12.5,5.4-11.4,12.4c0.9,5.6,5.1,8.6,12.1,8.6C231.9,568.2,269.5,568.2,307.2,568.2z M294.1,440.3
		c12.2-0.5,24-5.8,33.8-15.8c3.2-3.3,4-7.3,2.4-11.5c-1.6-4.1-5-7-9.1-6.4c-3.4,0.4-7.2,2.4-9.8,4.9c-14,13.2-36.3,9.4-44.6-8
		c-5.2-11-5.1-22.3-0.2-33.4c4.6-10.2,13-15.3,24-16.1c8.5-0.6,15.5,2.7,21.5,8.6c4.6,4.6,11.1,4.4,15.2,0.1
		c3.9-4,4.1-10.7-0.2-14.9c-11.8-11.4-25.8-17.3-42.3-14.3c-29.1,5.4-48.6,36.9-41.2,65.6C249.9,423,270.5,440.4,294.1,440.3z
		 M388.8,401.4c-1.2-2.9-2.1-4.7-2.8-6.6c-7-17.3-14-34.5-21.1-51.7c-2.5-6.1-8.2-8.6-13.8-6.4c-5.6,2.2-8.3,8.1-5.9,14
		c11.1,27.6,22.4,55.2,33.7,82.7c1.8,4.5,5.1,6.9,10,6.9c4.9,0,8.2-2.6,10-7c11-27.5,22.1-54.9,33-82.5c2.4-6.1-0.1-11.8-5.7-14.1
		c-5.5-2.3-11.3,0.2-13.9,6.1c-1.8,4.3-3.5,8.6-5.2,13C401.1,370.7,395.2,385.5,388.8,401.4z"/>
	<path class="st0" d="M413.9,173c17.7,18.5,34.7,36.1,51.4,53.5c-0.1,0-1.7,0.2-3.3,0.2c-14.5,0-29-0.1-43.4,0.1
		c-3.8,0-5.3-0.8-5.2-5c0.3-14.5,0.1-29,0.1-43.4C413.5,177,413.7,175.6,413.9,173z"/>
	<path d="M307.1,503.4c-37.5,0-75,0-112.5,0c-7.4,0-11.7-3.1-12.6-8.7c-1.1-7.1,3.9-12.4,12-12.4c18.7-0.1,37.3,0,56,0
		c56.2,0,112.3,0,168.5,0.1c2.3,0,4.7,0.1,6.9,0.8c4.7,1.4,7.6,6,7.1,10.8c-0.5,4.9-3.9,8.9-8.9,9.3c-4.6,0.4-9.3,0.3-14,0.3
		C375.5,503.4,341.3,503.4,307.1,503.4C307.1,503.4,307.1,503.4,307.1,503.4z"/>
	<path d="M307.2,568.2c-37.7,0-75.3,0-113,0c-7,0-11.3-3.1-12.1-8.6c-1.1-7,3.8-12.4,11.4-12.4c17-0.1,34,0,51,0
		c58.3,0,116.6,0,175,0c1,0,2,0,3,0c5.9,0.5,10.3,5.3,10.1,11c-0.2,5.5-4.6,10-10.4,10c-13.5,0.1-27,0.1-40.5,0.1
		C356.8,568.2,332,568.2,307.2,568.2C307.2,568.2,307.2,568.2,307.2,568.2z"/>
	<path d="M294.1,440.3c-23.6,0.1-44.3-17.4-50.5-41.1c-7.4-28.7,12.1-60.2,41.2-65.6c16.5-3.1,30.5,2.9,42.3,14.3
		c4.3,4.2,4.1,10.8,0.2,14.9c-4.1,4.2-10.6,4.4-15.2-0.1c-6-6-13-9.2-21.5-8.6c-11,0.7-19.4,5.9-24,16.1c-5,11-5,22.4,0.2,33.4
		c8.2,17.4,30.6,21.2,44.6,8c2.6-2.4,6.4-4.4,9.8-4.9c4.2-0.5,7.6,2.3,9.1,6.4c1.6,4.3,0.8,8.2-2.4,11.5
		C318.2,434.5,306.4,439.9,294.1,440.3z"/>
	<path d="M388.8,401.4c6.4-16,12.3-30.7,18.3-45.5c1.7-4.3,3.3-8.7,5.2-13c2.6-5.9,8.4-8.4,13.9-6.1c5.6,2.3,8.1,8,5.7,14.1
		c-10.9,27.5-22,55-33,82.5c-1.8,4.4-5.1,7-10,7c-4.9,0-8.2-2.4-10-6.9c-11.3-27.6-22.5-55.1-33.7-82.7c-2.4-5.9,0.3-11.8,5.9-14
		c5.6-2.2,11.2,0.3,13.8,6.4c7.1,17.2,14.1,34.5,21.1,51.7C386.7,396.7,387.5,398.5,388.8,401.4z"/>
</g>
</svg>
