<?xml version="1.0" encoding="utf-8"?>
<!-- Generator: Adobe Illustrator 19.0.0, SVG Export Plug-In . SVG Version: 6.00 Build 0)  -->
<svg version="1.1" id="Layer_1" xmlns="http://www.w3.org/2000/svg" xmlns:xlink="http://www.w3.org/1999/xlink" x="0px" y="0px"
	 viewBox="-49 141 512 512" style="enable-background:new -49 141 512 512;" xml:space="preserve">
<style type="text/css">
	.st0{fill:none;stroke:#C22A27;stroke-width:32;stroke-linecap:round;stroke-linejoin:round;}
	.st1{fill:none;stroke:#C22A27;stroke-width:32;stroke-miterlimit:10;}
</style>
<title>ionicons-v5-i</title>
<path class="st0" d="M34,525C21,492-1,431.6-1,397c0-114.9,101.3-208,208-208s208,93.1,208,208c0,34.6-23,97-35,128"/>
<path class="st1" d="M59.4,411.1l-13.7,8l0,0c-30.2,17.7-31.7,72.4-3.4,122.2c28.3,49.8,75.9,75.8,106.1,58.1l0,0l13.7-8
	c7.6-4.5,10.1-14.2,5.8-21.9L81,417c-4.3-7.6-13.9-10.2-21.4-6C59.5,411.1,59.4,411.1,59.4,411.1z"/>
<path class="st1" d="M354.6,411.1l13.7,8l0,0c30.2,17.7,31.7,72.4,3.4,122.2s-75.9,75.8-106.1,58.1l0,0l-13.7-8
	c-7.6-4.5-10.1-14.2-5.8-21.9L333,417c4.3-7.6,13.9-10.2,21.4-6C354.5,411.1,354.6,411.1,354.6,411.1z"/>
</svg>
