<?xml version="1.0" encoding="utf-8"?>
<!-- Generator: Adobe Illustrator 19.0.0, SVG Export Plug-In . SVG Version: 6.00 Build 0)  -->
<svg version="1.1" id="Layer_1" xmlns="http://www.w3.org/2000/svg" xmlns:xlink="http://www.w3.org/1999/xlink" x="0px" y="0px"
	 viewBox="-49 141 512 512" style="enable-background:new -49 141 512 512;" xml:space="preserve">
<style type="text/css">
	.st0{fill:none;stroke:#C22A27;stroke-width:32;stroke-linecap:round;stroke-linejoin:round;}
</style>
<title>ionicons-v5-j</title>
<path class="st0" d="M143,359v-6c0-14.8,10-27,24.2-30.6l174.6-46.7c10.7-2.9,21.6,3.5,24.5,14.2c0.4,1.7,0.7,3.4,0.7,5.1v22"/>
<path class="st0" d="M367,436.9v80c0,13.9-8.9,25.6-22,30l-22,8c-25.9,8.7-52-10.4-52-38l0,0c-0.1-14.5,9.2-27.5,23-32l51-18.1
	C358.1,462.4,367,450.9,367,436.9V199c0-5.5-4.5-10-10-10c-0.9,0-1.7,0.1-2.6,0.3L155,243c-7.1,2-12.1,8.6-12,16v226
	c0,13.9-8.9,25.6-22,30l-52,18c-13.9,4.7-22,17.2-22,32l0,0c0,27.6,26.5,46.5,52,38l22-8c13.1-4.4,22-16.1,22-30v-80"/>
</svg>
